<svg width="25" height="24" viewBox="0 0 25 24" fill="none" xmlns="http://www.w3.org/2000/svg">
<g id="Icon">
<path id="Vector" d="M0 8.57661H24.0012V8.86237C24.0012 13.005 24.0012 17.148 24.0012 21.2912C24.0012 22.9023 22.9048 23.9996 21.2961 24C15.0994 24 8.90277 24 2.7063 24C1.09723 23.9996 0 22.9028 0 21.2908C0 17.1481 0 13.0052 0 8.86195V8.57661ZM10.3276 16.8363C9.67376 16.1799 9.03921 15.5407 8.40129 14.9032C7.99409 14.4981 7.48014 14.4716 7.11958 14.8343C6.75902 15.197 6.7834 15.7075 7.19186 16.1156C7.99255 16.9185 8.79421 17.72 9.59686 18.5202C10.0289 18.9505 10.463 18.974 10.921 18.5824C12.8821 16.9065 14.8407 15.2283 16.7967 13.548C17.2207 13.184 17.2783 12.6487 16.9459 12.2726C16.6219 11.9053 16.0987 11.8944 15.6806 12.2503C15.069 12.7714 14.4591 13.294 13.8509 13.8182L10.3276 16.8363Z" fill="#32C0C0"/>
<path id="Vector_2" d="M0.0440434 6.8377C0.0440434 5.83293 -0.036221 4.83656 0.0642146 3.85825C0.190284 2.62529 1.28499 1.73398 2.52678 1.71759C3.5803 1.70372 4.6334 1.71423 5.68693 1.71381H6.00252C6.00252 1.42511 5.99958 1.15994 6.00252 0.894772C6.01135 0.374524 6.37863 -0.0045256 6.86778 9.69612e-05C7.34391 0.00471952 7.70825 0.381668 7.71581 0.885948C7.72043 1.15195 7.71581 1.41796 7.71581 1.69868H16.2886C16.2886 1.45326 16.2886 1.1986 16.2886 0.942259C16.2919 0.381248 16.6504 -0.00704699 17.1584 9.69612e-05C17.6526 0.00724092 17.9989 0.393435 18.0027 0.94394C18.0027 1.19146 18.0027 1.43939 18.0027 1.71381H18.3137C19.331 1.71381 20.3488 1.71044 21.3662 1.71381C22.8871 1.72011 23.9948 2.8312 24.0019 4.35623C24.0057 5.17652 24.0019 5.99514 24.0019 6.8356L0.0440434 6.8377Z" fill="#32C0C0"/>
</g>
</svg>
