<svg width="24" height="25" viewBox="0 0 24 25" fill="none" xmlns="http://www.w3.org/2000/svg">
<g id="Icon">
<path id="Vector" d="M4.00046 0H7.00082C9.21021 0 11.0013 1.79107 11.0013 4.00046V7.00082C11.0013 9.21021 9.21021 11.0013 7.00082 11.0013H4.00046C1.79107 11.0013 0 9.21026 0 7.00082V4.00046C0 1.79107 1.79107 0 4.00046 0Z" fill="#32C0C0"/>
<path id="Vector_2" d="M16.9995 0H19.9998C22.2092 0 24.0003 1.79107 24.0003 4.00046V7.00082C24.0003 9.21021 22.2092 11.0013 19.9998 11.0013H16.9995C14.7901 11.0013 12.999 9.21021 12.999 7.00082V4.00046C12.999 1.79107 14.79 0 16.9995 0Z" fill="#32C0C0"/>
<path id="Vector_3" d="M4.00046 13.0015H7.00082C9.21021 13.0015 11.0013 14.7926 11.0013 17.002V20.0023C11.0013 22.2117 9.21021 24.0028 7.00082 24.0028H4.00046C1.79107 24.0029 0 22.2118 0 20.0024V17.002C0 14.7926 1.79107 13.0015 4.00046 13.0015Z" fill="#32C0C0"/>
<path id="Vector_4" d="M16.9995 13.0015H19.9998C22.2092 13.0015 24.0003 14.7926 24.0003 17.002V20.0023C24.0003 22.2118 22.2092 24.0029 19.9998 24.0029H16.9995C14.7901 24.0029 12.999 22.2118 12.999 20.0024V17.002C12.999 14.7926 14.79 13.0015 16.9995 13.0015Z" fill="#32C0C0"/>
</g>
</svg>
