<svg width="21" height="21" viewBox="0 0 21 21" fill="none" xmlns="http://www.w3.org/2000/svg">
<g id="Icon">
<g id="Icon_2">
<g id="Pen">
<path id="Vector" d="M0 19C0 20.1 0.9 21 2 21H4.6L0 16.4V19Z" fill="#2A9554"/>
<path id="Vector_2" d="M19.5996 4.59999L16.3996 1.39999C15.5996 0.599988 14.3996 0.599988 13.5996 1.39999L13.3996 1.59999C12.9996 1.99999 12.9996 2.59999 13.3996 2.99999L17.9996 7.59999C18.3996 7.99999 18.9996 7.99999 19.3996 7.59999L19.5996 7.39999C20.3996 6.59999 20.3996 5.39999 19.5996 4.59999Z" fill="#2A9554"/>
<path id="Vector_3" d="M11.9999 4.39998C11.5999 3.99998 10.9999 3.99998 10.5999 4.39998L1.49987 13.5C0.999872 14 0.999872 14.6 1.39987 15L5.99987 19.6C6.39987 20 6.99987 20 7.39987 19.6L16.4999 10.5C16.8999 10.1 16.8999 9.49998 16.4999 9.09998L11.9999 4.39998Z" fill="#2A9554"/>
</g>
</g>
</g>
</svg>
