<svg width="30" height="30" viewBox="0 0 30 30" fill="none" xmlns="http://www.w3.org/2000/svg">
<g id="Icon 2">
<g id="Icon">
<path id="Rectangle" d="M8.75 0C11.5114 0 13.75 2.23858 13.75 5V8.75C13.75 11.5114 11.5114 13.75 8.75 13.75H5C2.23858 13.75 0 11.5114 0 8.75V5C0 2.23858 2.23858 0 5 0H8.75ZM8.75 3.125H5C4.00145 3.125 3.18521 3.90558 3.12818 4.88983L3.125 5V8.75C3.125 9.74855 3.90558 10.5648 4.88983 10.6218L5 10.625H8.75C9.74855 10.625 10.5648 9.84443 10.6218 8.86017L10.625 8.75V5C10.625 4.00145 9.84443 3.18521 8.86017 3.12818L8.75 3.125Z" fill="#AAAAAA"/>
<path id="Rectangle_2" d="M25 0C27.7614 0 30 2.23858 30 5V8.75C30 11.5114 27.7614 13.75 25 13.75H21.25C18.4886 13.75 16.25 11.5114 16.25 8.75V5C16.25 2.23858 18.4886 0 21.25 0H25ZM25 3.125H21.25C20.2514 3.125 19.4352 3.90558 19.3782 4.88983L19.375 5V8.75C19.375 9.74855 20.1556 10.5648 21.1398 10.6218L21.25 10.625H25C25.9986 10.625 26.8148 9.84443 26.8718 8.86017L26.875 8.75V5C26.875 4.00145 26.0944 3.18521 25.1102 3.12818L25 3.125Z" fill="#AAAAAA"/>
<path id="Rectangle_3" d="M8.75 16.25C11.5114 16.25 13.75 18.4886 13.75 21.25V25C13.75 27.7614 11.5114 30 8.75 30H5C2.23858 30 0 27.7614 0 25V21.25C0 18.4886 2.23858 16.25 5 16.25H8.75ZM8.75 19.375H5C4.00145 19.375 3.18521 20.1556 3.12818 21.1398L3.125 21.25V25C3.125 25.9986 3.90558 26.8148 4.88983 26.8718L5 26.875H8.75C9.74855 26.875 10.5648 26.0944 10.6218 25.1102L10.625 25V21.25C10.625 20.2514 9.84443 19.4352 8.86017 19.3782L8.75 19.375Z" fill="#AAAAAA"/>
<path id="Rectangle_4" d="M25 16.25C27.7614 16.25 30 18.4886 30 21.25V25C30 27.7614 27.7614 30 25 30H21.25C18.4886 30 16.25 27.7614 16.25 25V21.25C16.25 18.4886 18.4886 16.25 21.25 16.25H25ZM25 19.375H21.25C20.2514 19.375 19.4352 20.1556 19.3782 21.1398L19.375 21.25V25C19.375 25.9986 20.1556 26.8148 21.1398 26.8718L21.25 26.875H25C25.9986 26.875 26.8148 26.0944 26.8718 25.1102L26.875 25V21.25C26.875 20.2514 26.0944 19.4352 25.1102 19.3782L25 19.375Z" fill="#AAAAAA"/>
</g>
</g>
</svg>
