<svg width="24" height="26" viewBox="0 0 24 26" fill="none" xmlns="http://www.w3.org/2000/svg">
<g id="Icon">
<path id="Vector" d="M24 21.6159C24 22.9701 23.5852 24.0393 22.7557 24.8236C21.9261 25.6079 20.8239 26 19.4489 26H4.55114C3.17614 26 2.07386 25.6079 1.24432 24.8236C0.414773 24.0393 0 22.9701 0 21.6159C0 21.0178 0.0198864 20.4338 0.0596591 19.8639C0.0994318 19.2941 0.178977 18.679 0.298295 18.0189C0.417614 17.3587 0.568182 16.7465 0.75 16.1823C0.931818 15.6181 1.17614 15.0679 1.48295 14.5319C1.78977 13.9959 2.14205 13.5388 2.53977 13.1608C2.9375 12.7828 3.4233 12.4809 3.99716 12.2552C4.57102 12.0295 5.20455 11.9167 5.89773 11.9167C6 11.9167 6.23864 12.038 6.61364 12.2806C6.98864 12.5232 7.41193 12.7941 7.88352 13.0931C8.35511 13.3921 8.96875 13.663 9.72443 13.9056C10.4801 14.1482 11.2386 14.2695 12 14.2695C12.7614 14.2695 13.5199 14.1482 14.2756 13.9056C15.0312 13.663 15.6449 13.3921 16.1165 13.0931C16.5881 12.7941 17.0114 12.5232 17.3864 12.2806C17.7614 12.038 18 11.9167 18.1023 11.9167C18.7955 11.9167 19.429 12.0295 20.0028 12.2552C20.5767 12.4809 21.0625 12.7828 21.4602 13.1608C21.858 13.5388 22.2102 13.9959 22.517 14.5319C22.8239 15.0679 23.0682 15.6181 23.25 16.1823C23.4318 16.7465 23.5824 17.3587 23.7017 18.0189C23.821 18.679 23.9006 19.2941 23.9403 19.8639C23.9801 20.4338 24 21.0178 24 21.6159ZM18.5455 6.5C18.5455 8.29427 17.9062 9.82617 16.6278 11.0957C15.3494 12.3652 13.8068 13 12 13C10.1932 13 8.65057 12.3652 7.37216 11.0957C6.09375 9.82617 5.45455 8.29427 5.45455 6.5C5.45455 4.70573 6.09375 3.17383 7.37216 1.9043C8.65057 0.634766 10.1932 0 12 0C13.8068 0 15.3494 0.634766 16.6278 1.9043C17.9062 3.17383 18.5455 4.70573 18.5455 6.5Z" fill="#AAAAAA"/>
</g>
</svg>
