<svg width="24" height="29" viewBox="0 0 24 29" fill="none" xmlns="http://www.w3.org/2000/svg">
<path d="M18.0005 0H6.00017C2.69168 0 0 2.71029 0 6.04167V22.9583C0 26.2897 2.69168 29 6.00017 29H18.0005C21.309 29 24.0007 26.2897 24.0007 22.9583V6.04167C24.0007 2.71029 21.309 0 18.0005 0ZM9.60027 22.9583C9.60027 23.6253 9.06265 24.1667 8.40024 24.1667H6.00017C5.33775 24.1667 4.80013 23.6253 4.80013 22.9583V20.5417C4.80013 19.8747 5.33775 19.3333 6.00017 19.3333H8.40024C9.06265 19.3333 9.60027 19.8747 9.60027 20.5417V22.9583ZM9.60027 15.7083C9.60027 16.3753 9.06265 16.9167 8.40024 16.9167H6.00017C5.33775 16.9167 4.80013 16.3753 4.80013 15.7083V13.2917C4.80013 12.6247 5.33775 12.0833 6.00017 12.0833H8.40024C9.06265 12.0833 9.60027 12.6247 9.60027 13.2917V15.7083ZM9.60027 8.45833C9.60027 9.12533 9.06265 9.66667 8.40024 9.66667H6.00017C5.33775 9.66667 4.80013 9.12533 4.80013 8.45833V6.04167C4.80013 5.37467 5.33775 4.83333 6.00017 4.83333H8.40024C9.06265 4.83333 9.60027 5.37467 9.60027 6.04167V8.45833ZM18.0005 22.9583H13.2004C11.6307 22.9511 11.6319 20.5489 13.2004 20.5417H18.0005C19.5701 20.5489 19.5689 22.9511 18.0005 22.9583ZM18.0005 15.7083H13.2004C11.6307 15.7011 11.6319 13.2989 13.2004 13.2917H18.0005C19.5701 13.2989 19.5689 15.7011 18.0005 15.7083ZM18.0005 8.45833H13.2004C11.6307 8.45108 11.6319 6.04892 13.2004 6.04167H18.0005C19.5701 6.04892 19.5689 8.45108 18.0005 8.45833Z" fill="#32C0C0"/>
</svg>
