<svg width="22" height="22" viewBox="0 0 22 22" fill="none" xmlns="http://www.w3.org/2000/svg">
<g id="Location">
<g id="Vector">
<path id="Vector_2" d="M10.9997 0C8.56934 0.00266896 6.23932 0.969297 4.52081 2.6878C2.8023 4.40631 1.83568 6.73633 1.83301 9.16667C1.83301 14.0085 9.53301 20.6553 10.4075 21.3978L10.9997 21.8983L11.5918 21.3978C12.4663 20.6553 20.1663 14.0085 20.1663 9.16667C20.1637 6.73633 19.197 4.40631 17.4785 2.6878C15.76 0.969297 13.43 0.00266896 10.9997 0V0ZM10.9997 13.75C10.0932 13.75 9.20704 13.4812 8.45331 12.9776C7.69959 12.4739 7.11213 11.7581 6.76523 10.9206C6.41832 10.0831 6.32756 9.16158 6.50441 8.2725C6.68126 7.38342 7.11778 6.56675 7.75877 5.92576C8.39976 5.28477 9.21643 4.84825 10.1055 4.6714C10.9946 4.49455 11.9161 4.58532 12.7536 4.93222C13.5911 5.27912 14.307 5.86658 14.8106 6.6203C15.3142 7.37403 15.583 8.26017 15.583 9.16667C15.5816 10.3818 15.0982 11.5467 14.239 12.406C13.3797 13.2652 12.2148 13.7485 10.9997 13.75Z" fill="white"/>
<path id="Vector_3" d="M11 11.9167C12.5188 11.9167 13.75 10.6855 13.75 9.16675C13.75 7.64796 12.5188 6.41675 11 6.41675C9.48122 6.41675 8.25 7.64796 8.25 9.16675C8.25 10.6855 9.48122 11.9167 11 11.9167Z" fill="white"/>
</g>
</g>
</svg>
