<svg width="35" height="71" viewBox="0 0 35 71" fill="none" xmlns="http://www.w3.org/2000/svg">
<g id="Logo">
<g id="Icon">
<path id="Vector" d="M34.6797 7.99189C34.7968 12.1469 33.027 14.8311 29.4278 16.9064C25.0228 19.444 20.4756 22.0583 16.0316 24.5757C11.1148 27.3457 9.89138 30.745 13.4217 35.227C12.274 37.7083 8.27311 37.2572 6.07638 36.8872C3.60421 35.4097 2.88345 32.1796 3.02347 29.5359C3.22317 25.7802 5.25003 22.205 8.0275 19.6628C16.8878 13.0943 25.765 6.53998 34.659 0C34.659 2.66472 34.6659 5.32868 34.6797 7.99189Z" fill="url(#paint0_linear_2_10)"/>
<path id="Vector_2" d="M13.4221 35.227C13.4221 35.227 12.8849 34.7984 12.0012 34.0247C7.80285 30.3525 2.33744 24.6727 8.01633 19.6628C6.19761 21.0518 4.58654 22.6851 3.23036 24.5148C-0.786634 29.8021 -0.00159823 38.306 0.188922 44.6625C0.280739 47.7122 3.94883 48.3889 6.28098 47.1709C8.84727 45.8175 11.588 44.3197 14.0854 43.0069C17.8844 40.9768 16.009 37.2729 13.4221 35.227Z" fill="url(#paint1_linear_2_10)"/>
<path id="Vector_3" d="M0.319909 63.0081C0.202842 58.8531 1.97032 56.1666 5.57184 54.0959C9.97906 51.556 14.524 48.9416 18.9679 46.4265C23.8825 43.6475 25.1082 40.2482 21.5779 35.7662C22.7256 33.2849 26.7265 33.7496 28.9347 34.1083C31.4069 35.5857 32.1253 38.8159 31.9853 41.4573C31.7879 45.213 29.7587 48.7882 26.9836 51.3304C18.1171 57.9035 9.23687 64.46 0.342863 71C0.342863 68.3293 0.335212 65.6653 0.319909 63.0081Z" fill="url(#paint2_linear_2_10)"/>
<path id="Vector_4" d="M21.5763 35.7729C21.5763 35.7729 22.1134 36.2015 22.9971 36.9752C27.1909 40.6497 32.6609 46.325 26.982 51.3372C28.8005 49.9487 30.4109 48.3153 31.7656 46.4852C35.7849 41.1979 35.0045 32.6917 34.8094 26.3487C34.7153 23.299 31.0518 22.6223 28.7173 23.8426C26.1487 25.196 23.4103 26.6915 20.9244 28.0066C17.1162 30.0232 18.9916 33.727 21.5763 35.7729Z" fill="url(#paint3_linear_2_10)"/>
</g>
</g>
<defs>
<linearGradient id="paint0_linear_2_10" x1="38.7242" y1="19.7147" x2="3.47902" y2="17.2998" gradientUnits="userSpaceOnUse">
<stop stop-color="#2AA2A2"/>
<stop offset="1" stop-color="#00FFFF"/>
</linearGradient>
<linearGradient id="paint1_linear_2_10" x1="18.3092" y1="34.5529" x2="0.196401" y2="33.7106" gradientUnits="userSpaceOnUse">
<stop stop-color="#269393"/>
<stop offset="1" stop-color="#00FFFF"/>
</linearGradient>
<linearGradient id="paint2_linear_2_10" x1="36.0423" y1="53.5358" x2="0.786872" y2="51.1195" gradientUnits="userSpaceOnUse">
<stop stop-color="#2AA2A2"/>
<stop offset="1" stop-color="#00FFFF"/>
</linearGradient>
<linearGradient id="paint3_linear_2_10" x1="37.0705" y1="38.1525" x2="18.9601" y2="37.3101" gradientUnits="userSpaceOnUse">
<stop stop-color="#2AA2A2"/>
<stop offset="1" stop-color="#00FFFF"/>
</linearGradient>
</defs>
</svg>
