<svg width="5" height="26" viewBox="0 0 5 26" fill="none" xmlns="http://www.w3.org/2000/svg">
<g id="More Icon">
<path id="Vector" d="M2.5 5.2C1.11929 5.2 0 4.03594 0 2.6C0 1.16406 1.11929 0 2.5 0C3.88071 0 5 1.16406 5 2.6C5 4.03594 3.88071 5.2 2.5 5.2Z" fill="black"/>
<path id="Vector_2" d="M2.5 15.6C1.11929 15.6 0 14.4359 0 13C0 11.5641 1.11929 10.4 2.5 10.4C3.88071 10.4 5 11.5641 5 13C5 14.4359 3.88071 15.6 2.5 15.6Z" fill="black"/>
<path id="Vector_3" d="M2.5 26C1.11929 26 0 24.8359 0 23.4C0 21.964 1.11929 20.8 2.5 20.8C3.88071 20.8 5 21.964 5 23.4C5 24.8359 3.88071 26 2.5 26Z" fill="black"/>
</g>
</svg>
