<svg width="18" height="18" viewBox="0 0 18 18" fill="none" xmlns="http://www.w3.org/2000/svg">
<g id="Call" clip-path="url(#clip0_172_1346)">
<g id="Vector">
<path id="Vector_2" d="M17.2502 8.2501C17.0513 8.2501 16.8605 8.17108 16.7199 8.03043C16.5792 7.88978 16.5002 7.69901 16.5002 7.5001C16.4986 5.90929 15.866 4.38409 14.7411 3.25921C13.6162 2.13434 12.091 1.50169 10.5002 1.5001C10.3013 1.5001 10.1105 1.42108 9.96989 1.28043C9.82924 1.13978 9.75022 0.949012 9.75022 0.750099C9.75022 0.551187 9.82924 0.360421 9.96989 0.219769C10.1105 0.0791167 10.3013 9.9046e-05 10.5002 9.9046e-05C12.4887 0.00228274 14.3951 0.79316 15.8011 2.19921C17.2072 3.60526 17.998 5.51165 18.0002 7.5001C18.0002 7.69901 17.9212 7.88978 17.7806 8.03043C17.6399 8.17108 17.4491 8.2501 17.2502 8.2501ZM15.0002 7.5001C15.0002 6.30663 14.5261 5.16203 13.6822 4.31812C12.8383 3.47421 11.6937 3.0001 10.5002 3.0001C10.3013 3.0001 10.1105 3.07912 9.96989 3.21977C9.82924 3.36042 9.75022 3.55119 9.75022 3.7501C9.75022 3.94901 9.82924 4.13978 9.96989 4.28043C10.1105 4.42108 10.3013 4.5001 10.5002 4.5001C11.2959 4.5001 12.0589 4.81617 12.6215 5.37878C13.1842 5.94139 13.5002 6.70445 13.5002 7.5001C13.5002 7.69901 13.5792 7.88978 13.7199 8.03043C13.8605 8.17108 14.0513 8.2501 14.2502 8.2501C14.4491 8.2501 14.6399 8.17108 14.7806 8.03043C14.9212 7.88978 15.0002 7.69901 15.0002 7.5001ZM16.6375 16.6231L17.32 15.8364C17.7544 15.4005 17.9983 14.8103 17.9983 14.195C17.9983 13.5796 17.7544 12.9894 17.32 12.5536C17.2967 12.5304 15.4922 11.1421 15.4922 11.1421C15.0591 10.7298 14.4839 10.5003 13.8859 10.5011C13.288 10.502 12.7134 10.7331 12.2815 11.1466L10.852 12.3511C9.68511 11.8682 8.62514 11.1595 7.73294 10.2657C6.84074 9.37199 6.13388 8.3108 5.65297 7.1431L6.85297 5.7181C7.26676 5.28623 7.4982 4.71151 7.49917 4.1134C7.50015 3.5153 7.27059 2.93982 6.85822 2.5066C6.85822 2.5066 5.46847 0.704349 5.44522 0.681099C5.01731 0.25041 4.43713 0.00536556 3.83004 -0.00108987C3.22295 -0.00754529 2.63769 0.225107 2.20072 0.646599L1.33822 1.3966C-3.75728 7.3081 7.21522 18.1959 13.3217 18.0001C13.9384 18.0037 14.5495 17.8837 15.119 17.6472C15.6884 17.4107 16.2048 17.0625 16.6375 16.6231Z" fill="white"/>
</g>
</g>
<defs>
<clipPath id="clip0_172_1346">
<rect width="18" height="18" fill="white"/>
</clipPath>
</defs>
</svg>
