<svg width="23" height="23" viewBox="0 0 23 23" fill="none" xmlns="http://www.w3.org/2000/svg">
<g id="Icon">
<path id="Vector" d="M4.84211 23H1.21053C0.889475 23 0.581573 22.8725 0.354555 22.6454C0.127537 22.4184 0 22.1105 0 21.7895V12.1053C0 11.7842 0.127537 11.4763 0.354555 11.2493C0.581573 11.0223 0.889475 10.8947 1.21053 10.8947H4.84211C5.16316 10.8947 5.47106 11.0223 5.69808 11.2493C5.92509 11.4763 6.05263 11.7842 6.05263 12.1053V21.7895C6.05263 22.1105 5.92509 22.4184 5.69808 22.6454C5.47106 22.8725 5.16316 23 4.84211 23ZM13.3158 23H9.68421C9.36316 23 9.05526 22.8725 8.82824 22.6454C8.60122 22.4184 8.47368 22.1105 8.47368 21.7895V1.21053C8.47368 0.889475 8.60122 0.581573 8.82824 0.354555C9.05526 0.127537 9.36316 0 9.68421 0H13.3158C13.6368 0 13.9447 0.127537 14.1718 0.354555C14.3988 0.581573 14.5263 0.889475 14.5263 1.21053V21.7895C14.5263 22.1105 14.3988 22.4184 14.1718 22.6454C13.9447 22.8725 13.6368 23 13.3158 23ZM21.7895 23H18.1579C17.8368 23 17.5289 22.8725 17.3019 22.6454C17.0749 22.4184 16.9474 22.1105 16.9474 21.7895V8.47368C16.9474 8.15263 17.0749 7.84473 17.3019 7.61771C17.5289 7.3907 17.8368 7.26316 18.1579 7.26316H21.7895C22.1105 7.26316 22.4184 7.3907 22.6454 7.61771C22.8725 7.84473 23 8.15263 23 8.47368V21.7895C23 22.1105 22.8725 22.4184 22.6454 22.6454C22.4184 22.8725 22.1105 23 21.7895 23Z" fill="#AAAAAA"/>
</g>
</svg>
