<svg width="25" height="26" viewBox="0 0 25 26" fill="none" xmlns="http://www.w3.org/2000/svg">
<g id="Icon">
<path id="Vector" d="M11.6024 0.180693C11.8037 0.0264324 12.0677 -0.0333514 12.3208 0.0180148L24.3204 2.45353C24.7157 2.53376 24.9981 2.86485 24.9981 3.24802V22.7481C24.9981 23.1311 24.7157 23.4621 24.3206 23.5424L12.3211 25.982C12.068 26.0333 11.8039 25.9737 11.6025 25.8193C11.4012 25.6651 11.2842 25.4329 11.2842 25.1875L11.2852 0.812509C11.2853 0.567167 11.4011 0.334955 11.6024 0.180693ZM17.2876 12.998C17.2876 12.3249 16.7119 11.7793 16.0018 11.7793C15.2917 11.7793 14.7161 12.3249 14.7161 12.998C14.7161 13.6712 15.2917 14.2168 16.0018 14.2168C16.7119 14.2168 17.2876 13.6712 17.2876 12.998Z" fill="#AAAAAA"/>
<path id="Vector_2" d="M9.57295 1.62678H1.85522C1.3818 1.62678 0.998047 1.99054 0.998047 2.43928V23.5567C0.998047 24.0053 1.3818 24.3692 1.85522 24.3692H9.57295V1.62678Z" fill="#AAAAAA"/>
</g>
</svg>
