<svg width="32" height="32" viewBox="0 0 32 32" fill="none" xmlns="http://www.w3.org/2000/svg">
<g id="Icon 1">
<g id="Icon">
<path id="Vector" d="M17.5557 3.74997H29.9999" stroke="#32C0C0" strokeWidth="3" strokeLinecap="round" strokeLinejoin="round"/>
<path id="Vector_2" d="M17.5557 10.75H25.3333" stroke="#32C0C0" strokeWidth="3" strokeLinecap="round" strokeLinejoin="round"/>
<path id="Vector_3" d="M17.5557 21.25H29.9999" stroke="#32C0C0" strokeWidth="3" strokeLinecap="round" strokeLinejoin="round"/>
<path id="Vector_4" d="M17.5557 28.25H25.3333" stroke="#32C0C0" strokeWidth="3" strokeLinecap="round" strokeLinejoin="round"/>
<path id="Vector_5" d="M9.77763 2H3.55553C2.69643 2 2 2.7835 2 3.75V10.75C2 11.7165 2.69643 12.5 3.55553 12.5H9.77763C10.6367 12.5 11.3332 11.7165 11.3332 10.75V3.75C11.3332 2.7835 10.6367 2 9.77763 2Z" stroke="#32C0C0" strokeWidth="3" strokeLinecap="round" strokeLinejoin="round"/>
<path id="Vector_6" d="M9.77763 19.5H3.55553C2.69643 19.5 2 20.2835 2 21.25V28.25C2 29.2165 2.69643 30 3.55553 30H9.77763C10.6367 30 11.3332 29.2165 11.3332 28.25V21.25C11.3332 20.2835 10.6367 19.5 9.77763 19.5Z" stroke="#32C0C0" strokeWidth="3" strokeLinecap="round" strokeLinejoin="round"/>
</g>
</g>
</svg>
