<svg width="23" height="22" viewBox="0 0 23 22" fill="none" xmlns="http://www.w3.org/2000/svg">
<g id="Search Icon">
<path id="Vector" d="M21.6005 19.6581L17.3421 15.3983C20.5284 11.1406 19.6596 5.10615 15.4015 1.92007C11.1435 -1.26601 5.10853 -0.397273 1.92218 3.86044C-1.26417 8.11815 -0.395353 14.1526 3.86272 17.3387C7.28315 19.898 11.981 19.898 15.4015 17.3387L19.6617 21.5985C20.1971 22.1338 21.0651 22.1338 21.6004 21.5985C22.1358 21.0632 22.1358 20.1953 21.6004 19.66L21.6005 19.6581ZM9.66762 16.5165C5.88325 16.5165 2.81545 13.4489 2.81545 9.66486C2.81545 5.88081 5.88325 2.81326 9.66762 2.81326C13.452 2.81326 16.5198 5.88081 16.5198 9.66486C16.5158 13.4472 13.4503 16.5124 9.66762 16.5165Z" fill="#32C0C0"/>
</g>
</svg>
